#!OML:ASF F:\VICON\USERDATA\INSTALL\rory3\rory3.ASF
:FULLY-SPECIFIED
:DEGREES
78
root 0.017839335186651706 17.49139407146806 47.28230432580008 2.4160231094332993 1.0987730054077536 0.06698041200350113
lfemur -1.40811050623779 -2.0336542175836665 -27.40722756054576
ltibia 41.24304904122242
lfoot -15.533860753791057 -3.5690801497595075
ltoes -2.7453382152637644
rfemur -43.86727372913954 -6.684837222940665 24.833967359212004
rtibia 88.81116928028884
rfoot 5.414667424929266 -10.84991960940662
rtoes 1.1757766010692285
lowerback 16.229882371997075 0.3428900255396254 -1.6529406849318737
upperback -0.12902041269809672 0.3707013616612753 0.7264457493704013
thorax -9.572773151340137 0.2660716217942155 2.569247375783751
lowerneck -19.749426494307674 -2.839598286140124 -3.222566936246007
upperneck 12.684542577912653 -3.767354829502131 4.289149564700448
head 7.3890829532366755 -1.4253085829362084 1.4438613909962439
lclavicle -7.178230028281034e-16 2.517691811316566e-15
lhumerus -40.18062935135607 -16.14643234769088 96.40148431162301
lradius 105.71546525921944
lwrist 35.418563305184804
lhand -26.05586227937536 0.33710207638790934
lfingers 7.12502
lthumb 0.49186847874195205 30.3196606146771
rclavicle -7.178230028281034e-16 2.517691811316566e-15
rhumerus -53.01330455652826 10.451058491506933 -98.99532714365546
rradius 113.6174429366046
rwrist -11.366487916079281
rhand -15.14319822727773 39.69087593007291
rfingers 7.12502
rthumb 11.02690690977846 10.10187921338483
79
root -0.03182205118232301 17.389754062474534 49.119980263209165 3.4594854302368216 2.313991760449419 0.576060754167576
lfemur 5.0653743026116995 -1.4678205447796024 -28.07976480636798
ltibia 35.771743541181024
lfoot -16.33116785890599 -3.9582299609934934
ltoes -4.347183494897386
rfemur -45.50025714677016 -3.5624805910589816 23.512714625668174
rtibia 67.71610075692043
rfoot 4.97777932188223 -14.933853053970662
rtoes -2.1731458555141825
lowerback 15.60665641194526 -0.08900216223439472 -2.547895710061715
upperback -0.3811461450387731 -0.34547924131778984 0.8033365748430652
thorax -9.410215138679666 -0.02820250419552839 3.446668499024493
lowerneck -19.8572025976027 -2.9141658761707028 -3.3726912213526528
upperneck 12.502620871087132 -3.8535193385801456 4.544514413879833
head 7.360433073593562 -1.441032160063345 1.5405218191638355
lclavicle -5.329616124935284e-16 2.651123351790549e-15
lhumerus -33.941431612227646 -18.415632393233732 96.25008300854994
lradius 109.58716217399632
lwrist 36.522520811623004
lhand -25.918464962185983 1.03833943533634
lfingers 7.12502
lthumb 0.6245150849526612 31.020527170687956
rclavicle -5.329616124935284e-16 2.651123351790549e-15
rhumerus -54.988212311667354 10.363071246230346 -98.65834769681771
rradius 112.99583539031548
rwrist -11.342641098040529
rhand -14.944180057698592 39.99372240011426
rfingers 7.12502
rthumb 11.21899700393721 10.400875840324026
80
root -0.10481209154961528 17.198281927841983 50.716728279389095 4.500396285612613 3.3257331435489403 0.940031129020789
lfemur 11.514570476035553 -1.3601950076369906 -28.54839697366714
ltibia 29.86489480501873
lfoot -16.91545527626406 -4.668595933347331
ltoes -8.091906485021319
rfemur -46.11562980327521 -0.05124775942778703 22.123279558481634
rtibia 47.107016361668975
rfoot 4.091860433890901 -18.284996521203407
rtoes -6.574167935702343
lowerback 14.705517263103062 -0.5244930231344509 -3.407123410416549
upperback -0.6467147829809069 -1.0535712810891718 0.8976024833727725
thorax -9.172390234861417 -0.32057992309528405 4.217643701268436
lowerneck -20.084001862098724 -2.928038368619074 -3.4650338437089756
upperneck 12.35626624876296 -3.8822398319286737 4.690824924849581
head 7.342612699654348 -1.4290913813873511 1.5935880512249359
lclavicle -8.89904576364846e-16 2.3913078307457633e-15
lhumerus -28.497255606454715 -20.315538844787135 95.83915738128582
lradius 113.24510805375648
lwrist 37.3486850333314
lhand -26.038848944485594 1.205378590873439
lfingers 7.12502
lthumb 0.508238587893326 31.18417609612184
rclavicle -8.89904576364846e-16 2.3913078307457633e-15
rhumerus -57.102356106037696 9.44395243947464 -97.98168797401863
rradius 111.49720199800203
rwrist -10.841595135290227
rhand -14.914514967763443 40.3416006718338
rfingers 7.12502
rthumb 11.247647639090822 10.72842637297374
81
root -0.19082397647148475 16.944696305394302 51.45726546800012 5.211782977680034 4.040421431342271 1.0753774121950355
lfemur 16.963120389948863 -2.0905832746047177 -28.62051487563113
ltibia 26.63017589773574
lfoot -16.620297912830438 -5.5967813988635875
ltoes -13.652461100779902
rfemur -45.92316395740602 2.3867325888673596 21.473483147747874
rtibia 34.83010546962184
rfoot 3.866655137111361 -18.429240315037003
rtoes -10.630364130589614
lowerback 14.003763429339859 -0.8636846718509974 -3.8756919811434702
upperback -0.804812405690875 -1.5695457727024595 1.0984700437095878
thorax -8.963295002746479 -0.5378382666151337 4.781489005702572
lowerneck -20.434960666928742 -2.887673729765509 -3.487236049847258
upperneck 12.355480273181724 -3.8275547901665137 4.685355380850379
head 7.364635093301218 -1.393532734757883 1.596285713793793
lclavicle -1.167588317952159e-15 2.1893877680370733e-15
lhumerus -24.65295589813333 -21.507074826919624 95.52821416494243
lradius 116.22914555129897
lwrist 37.84938399781582
lhand -26.446381511995142 0.7292001093732003
lfingers 7.12502
lthumb 0.1146923573014822 30.702732148402525
rclavicle -1.167588317952159e-15 2.1893877680370733e-15
rhumerus -59.13608323646283 7.807919800155156 -96.8009185307336
rradius 109.39931629369384
rwrist -9.908343605038008
rhand -15.167404117514893 40.63256337441622
rfingers 7.12502
rthumb 11.00359602141258 10.974070333159945
